<?xml version="1.0" encoding="utf-8"?>
<!-- Generator: Adobe Illustrator 16.0.3, SVG Export Plug-In . SVG Version: 6.00 Build 0)  -->
<!DOCTYPE svg PUBLIC "-//W3C//DTD SVG 1.1//EN" "http://www.w3.org/Graphics/SVG/1.1/DTD/svg11.dtd">
<svg version="1.1" id="Layer_1" xmlns="http://www.w3.org/2000/svg" xmlns:xlink="http://www.w3.org/1999/xlink" x="0px" y="0px"
	 width="283.464px" height="257.883px" viewBox="0 0 283.464 257.883" enable-background="new 0 0 283.464 257.883"
	 xml:space="preserve">
<g>
	<g>
		<path fill="#06428E" d="M16.971,212.61c-7.462-0.999-10.763-3.027-10.699-6.576c0.089-5.022,6.966-6.846,11.569-6.846l0.327,0.003
			c4.131,0.074,8.466,1.233,10.76,2.869c0.575,0.476,1.241,0.727,1.93,0.727c1.066,0,2.009-0.622,2.408-1.587
			c0.394-0.967,0.181-2.012-0.622-2.971c-3.342-3.318-9.937-4.595-14.565-4.678l-0.363-0.003c-6.628,0-17.148,3.327-17.162,12.254
			c-0.014,7.18,5.861,11.456,17.455,12.709c9.117,0.984,13.547,3.954,13.539,9.079c-0.006,3.489-3.462,8.682-12.972,8.682
			c-7.169,0-11.633-2.506-13.416-4.849c-0.666-0.872-1.532-1.354-2.441-1.354c-0.962,0-1.86,0.551-2.343,1.439
			c-0.622,1.146-0.463,2.592,0.43,3.962c2.366,3.632,9.26,6.391,16.766,6.712c0.446,0.018,0.89,0.027,1.322,0.027
			c10.838,0,18.417-5.98,18.433-14.544C37.345,215.343,24.591,213.633,16.971,212.61z"/>
		<path fill="#06428E" d="M226.761,231.707c-0.918,0-1.771,0.44-2.407,1.239c-3.283,4.132-6.569,4.132-8.33,4.132
			c-2.608,0-4.581-0.548-5.866-1.628c-1.244-1.045-1.85-2.291-1.85-3.814v-21.269h14.685c1.052,0,1.847-0.246,2.443-0.762
			c0.569-0.538,0.868-1.231,0.868-2.006c0-0.798-0.299-1.499-0.873-2.039c-0.578-0.521-1.374-0.775-2.438-0.775h-14.685v-7.492
			c0-1.082-0.249-1.882-0.762-2.448c-0.547-0.563-1.253-0.86-2.039-0.86c-0.776,0-1.484,0.31-1.992,0.863
			c-0.521,0.549-0.775,1.348-0.775,2.445v34.343c0,3.352,1.274,6.066,3.788,8.067c2.441,1.931,5.712,2.91,9.724,2.91
			c8.301,0,12.508-6.538,12.856-7.521c0.301-0.834,0.198-1.688-0.271-2.346C228.379,232.095,227.604,231.707,226.761,231.707z"/>
		<path fill="#06428E" d="M99.506,204.542c-4.514,0-8.57,1.279-11.524,3.615v-0.362c0-1.883-1.373-2.868-2.726-2.868
			c-1.359,0-2.801,1.005-2.801,2.868v32.477c0,1.771,1.442,2.727,2.801,2.727c1.353,0,2.726-0.936,2.726-2.727V216.86
			c1.54-4.044,6.144-6.756,11.485-6.756c4.834,0,8.483,3.019,8.483,7.023v23.144c0,1.424,1.258,2.538,2.865,2.538
			c1.548,0,2.669-1.067,2.669-2.538v-23.687C113.485,213.46,110.919,204.542,99.506,204.542z"/>
		<path fill="#06428E" d="M73.605,205.841c-0.682,0-1.965,0.271-2.903,2.084c-0.742,1.466-5.836,11.843-9.552,19.419l-3.286,6.7
			c-3.049-6.15-12.459-25.152-13.246-26.764c-0.524-1.05-1.534-1.678-2.703-1.678c-1.013,0-1.972,0.497-2.448,1.264
			c-0.419,0.663-0.458,1.463-0.113,2.194c0.555,1.176,8.062,16.221,12.548,25.21l2.951,5.914l-0.645,1.311
			c-1.707,3.476-5.258,10.704-6.148,12.567c-0.452,0.908-0.438,1.869,0.039,2.642c0.475,0.738,1.296,1.179,2.204,1.179
			c1.174,0,2.243-0.716,2.859-1.914c1.309-2.58,22.334-45.055,22.941-46.563c0.311-0.787,0.208-1.651-0.285-2.372
			C75.317,206.288,74.488,205.841,73.605,205.841z"/>
		<path fill="#06428E" d="M240.197,193.984c-3.982,0-7.224,3.24-7.224,7.224c0,2.927,1.743,5.509,4.461,6.645v32.869
			c0,1.475,1.199,2.586,2.792,2.586c1.588,0,2.737-1.088,2.737-2.586v-32.869c2.717-1.135,4.458-3.717,4.458-6.645
			C247.422,197.224,244.18,193.984,240.197,193.984z M240.197,198.084c1.712,0,3.101,1.396,3.101,3.108
			c0,1.701-1.389,3.087-3.101,3.087c-1.697,0-3.078-1.386-3.078-3.087C237.119,199.48,238.5,198.084,240.197,198.084z"/>
		<path fill="#06428E" d="M139.371,204.542c-5.285,0-9.789,1.8-13.391,5.351c-3.599,3.579-5.426,7.929-5.426,12.925
			c0,5.467,1.939,10.18,5.761,14.007c3.822,3.842,8.643,5.789,14.339,5.789c4.856,0,9.857-1.448,13.368-3.872
			c2.321-1.605,2.123-3.213,1.931-3.829c-0.313-1.009-1.267-1.712-2.317-1.712c-0.395,0-0.773,0.097-1.125,0.291
			c-4.335,2.379-7.362,3.587-11.856,3.587c-3.925,0-7.259-1.195-9.906-3.553c-2.343-2.094-3.869-4.814-4.533-8.097h29.439
			c0.67,0,1.314-0.28,1.771-0.773c0.452-0.49,0.684-1.154,0.637-1.822C156.969,208.364,145.36,204.542,139.371,204.542z
			 M130.589,213.162c2.433-2.028,5.387-3.058,8.782-3.058c3.391,0,6.353,1.038,8.805,3.084c2.101,1.771,3.523,4.014,4.24,6.672
			h-26.088C127.066,217.141,128.498,214.89,130.589,213.162z"/>
		<path fill="#06428E" d="M269.33,204.542c-3.081,0-12.959,2.171-14.248,3.529c-0.723,0.707-0.926,1.941-0.491,3
			c0.41,1.012,1.316,1.617,2.422,1.617c0.313,0,1.023-0.2,2.475-0.617c2.555-0.735,6.837-1.967,9.686-1.967
			c6.433,0,8.715,2.924,8.715,5.428v3.868c-1.406-0.236-5.992-0.954-9.365-0.954c-12.467,0-18.046,6.448-18.046,12.841
			c0,6.67,5.551,11.326,13.502,11.326c4.862,0,9.538-1.591,13.909-4.73v2.298c0,1.474,1.166,2.544,2.775,2.544
			c1.596,0,2.801-1.094,2.801-2.544v-24.648C283.464,210.205,278.51,204.542,269.33,204.542z M277.888,224.973v5.748
			c-4.757,4.454-8.972,6.356-14.06,6.356c-4.829,0-7.827-2.221-7.827-5.791c0-4.235,5.414-7.31,12.873-7.31
			C273.114,223.977,276.866,224.745,277.888,224.973z"/>
		<path fill="#06428E" d="M178.078,219.202c-5.839-0.68-8.665-2.152-8.626-4.504c0.045-2.928,5.047-4.662,9.649-4.589
			c3.334,0.051,6.946,0.916,8.762,2.083c2.694,2.031,6.537-1.036,3.87-3.901c-2.975-2.665-8.706-3.684-12.701-3.747
			c-7.217-0.115-15.033,2.949-15.143,9.954c-0.14,8.801,10.359,9.847,14.314,10.238c2.229,0.22,12.009,1.247,11.931,6.349
			c-0.049,3.068-3.994,6.112-11.432,5.993c-2.511-0.04-6.682-1.036-8.841-2.362c-4-2.513-7.624,1.287-4.07,4.131
			c4.229,3.032,9.632,3.716,12.944,3.768c9.854,0.156,16.817-4.549,16.925-11.443C195.801,222.393,186.336,220.164,178.078,219.202z
			"/>
	</g>
	<g>
		<g>
			<path fill="#06428E" d="M141.734,0C97.012,0,60.758,36.256,60.758,80.98c0,44.722,36.254,80.977,80.976,80.977
				c44.724,0,80.974-36.255,80.974-80.977C222.708,36.256,186.458,0,141.734,0z"/>
		</g>
		<g>
			<g>
				<g>
					<path fill="#FFFFFF" d="M121.835,65.933c-0.231,0-0.466-0.056-0.681-0.173c-3.367-1.83-5.504-4.621-6.179-8.07
						c-0.962-4.916,1.247-10.302,5.764-14.06c7.853-6.539,21.464-7.586,37.41-2.769c0.756,0.228,1.183,1.025,0.954,1.78
						c-0.226,0.756-1.019,1.185-1.779,0.954c-14.961-4.515-27.677-3.661-34.757,2.23c-3.713,3.091-5.549,7.426-4.787,11.316
						c0.508,2.586,2.146,4.699,4.74,6.108c0.692,0.377,0.948,1.245,0.572,1.938C122.831,65.664,122.34,65.933,121.835,65.933z"/>
				</g>
				<g>
					<path fill="#FFFFFF" d="M145.271,125.006c-7.287,0-15.556-1.615-24.58-4.802c-0.742-0.264-1.133-1.08-0.871-1.823
						c0.262-0.742,1.077-1.13,1.822-0.872c8.595,3.037,16.766,4.641,23.629,4.641h0.008c6.985,0,12.585-1.555,16.638-4.621
						c4.004-3.024,6.049-7.458,5.477-11.86c-0.475-3.624-2.527-6.616-5.942-8.652c-0.678-0.403-0.897-1.28-0.493-1.958
						c0.401-0.676,1.277-0.899,1.958-0.494c4.19,2.501,6.721,6.213,7.31,10.736c0.708,5.433-1.752,10.856-6.587,14.508
						c-4.562,3.449-10.737,5.198-18.359,5.198H145.271z"/>
				</g>
			</g>
			<path fill="#FFFFFF" d="M169.347,33.756c-10.662-4.211-20.739-6.31-29.699-6.31c-10.238,0-19.018,2.737-25.565,8.184
				c-7.446,6.192-11.011,15.412-9.32,24.058c1.59,8.123,6.829,13.933,16.727,17.39c0.616,4.872,4.765,8.646,9.806,8.646
				c5.465,0,9.892-4.43,9.892-9.893c0-5.462-4.427-9.892-9.892-9.892c-3.4,0-6.399,1.717-8.179,4.33
				c-6.099-1.995-10.419-6.358-11.508-11.92c-1.202-6.146,1.454-12.795,6.936-17.354c10.252-8.534,27.841-8.807,48.242-0.75
				c1.791,0.71,3.816-0.17,4.528-1.961C172.019,36.489,171.138,34.465,169.347,33.756z M131.295,69.692
				c3.392,0,6.14,2.75,6.14,6.139c0,3.39-2.748,6.139-6.14,6.139c-3.39,0-6.137-2.749-6.137-6.139
				C125.158,72.441,127.905,69.692,131.295,69.692z"/>
			<path fill="#FFFFFF" d="M180.547,103.957c-1.169-8.972-6.904-16.387-16.816-20.49c-0.083-5.39-4.472-9.738-9.884-9.738
				c-5.465,0-9.893,4.43-9.893,9.893c0,5.462,4.428,9.892,9.893,9.892c3.027,0,5.728-1.361,7.543-3.5
				c7.053,2.868,11.385,8.319,12.236,14.842c0.87,6.674-2.09,13.283-7.917,17.687c-11.254,8.51-30.782,7.775-53.576-2.01
				c-1.766-0.763-3.822,0.056-4.581,1.826c-0.759,1.77,0.056,3.823,1.83,4.582c14.716,6.318,26.482,8.535,35.736,8.535
				c12.411,0,20.317-3.978,24.8-7.365C177.769,122.176,181.741,113.144,180.547,103.957z M153.847,89.76
				c-3.39,0-6.137-2.75-6.137-6.139c0-3.39,2.747-6.139,6.137-6.139c3.393,0,6.141,2.749,6.141,6.139
				C159.987,87.01,157.239,89.76,153.847,89.76z"/>
			<path fill="#FFFFFF" d="M177.835,44.762c1.903-0.145,3.326-1.803,3.184-3.702c-0.137-1.815-1.651-3.194-3.438-3.194
				c-0.089,0-0.176,0.003-0.268,0.008c-1.902,0.145-3.322,1.799-3.177,3.705C174.278,43.479,175.933,44.904,177.835,44.762z"/>
			<path fill="#FFFFFF" d="M101.895,122.247c1.902-0.145,3.325-1.804,3.183-3.702c-0.136-1.814-1.651-3.194-3.437-3.194
				c-0.089,0-0.179,0.002-0.268,0.008c-1.902,0.145-3.322,1.799-3.18,3.705C98.335,120.964,99.992,122.389,101.895,122.247z"/>
		</g>
	</g>
</g>
</svg>
